Easy Rider (1969) PAL 16:9 (720x408) AC3 5.1 many subtitles

 
http://www.imdb.com/title/tt0064276/


"This Year It's Easy Rider

A man went looking for America. And couldn't find it anywhere.."


-----------------------------------------------------------------------------------
divx/xvid made for stand-alone-dvd players!!


don't Hit and Run!! we are here to help each other out!
-----------------------------------------------------------------------------------
subtitles for :

cesky, dansk, deutsch, english, espanol, francais, italiano, nederlands, norsk,
polski, portuguès, svenska

RENAME THE SUBTITLE YOU NEED TO Easy Rider.srt

-----------------------------------------------------------------------------------
grtz POSPIT

-----------------------------------------------------------------------------------


Format                           : DivX
Format/Info                      : Hack of AVI
File size                        : 969 MiB
Duration                         : 1h 31mn
Overall bit rate                 : 1 478 Kbps

Video
ID                               : 0
Format                           : MPEG-4 Visual
Format profile                   : Advanced Simple@L5
Format settings, BVOP            : Ja
Format settings, QPel            : Nee
Format settings, GMC             : Geen warppoints
Format settings, Matrix          : Aangepast
Muxing mode                      : Packed bitstream
Codec ID                         : DX50
Codec ID/Hint                    : DivX 5
Duration                         : 1h 31mn
Bit rate                         : 1 020 Kbps
Width                            : 720 pixels
Height                           : 408 pixels
Display aspect ratio             : 16:9
Frame rate                       : 25,000 fps
Resolution                       : 8 bits
Colorimetry                      : 4:2:0
Scan type                        : Progressief
Bits/(Pixel*Frame)               : 0.139
Stream size                      : 669 MiB (69%)
Title                            : Video 
Writing library                  : XviD 1.2.1 (UTC 2008-12-04)

Audio
ID                               : 1
Format                           : AC-3
Format/Info                      : Audio Coding 3
Codec ID                         : 2000
Duration                         : 1h 31mn
Bit rate mode                    : Constant
Bit rate                         : 448 Kbps
Channel(s)                       : 6 kanalen
Channel positions                : Front: L C R, Surround: L R, LFE
Sampling rate                    : 48,0 KHz
Stream size                      : 294 MiB (30%)
Alignment                        : Gesplitst over interleaves
Interleave, duration             : 40 ms (1,00 videoframes)
Interleave, preload duration     : 500 ms
Title                            : Audio 

